<?xml version="1.0" standalone="no"?>
<!DOCTYPE svg PUBLIC "-//W3C//DTD SVG 20010904//EN"
 "http://www.w3.org/TR/2001/REC-SVG-20010904/DTD/svg10.dtd">
<svg version="1.0" xmlns="http://www.w3.org/2000/svg"
 width="260.000000pt" height="260.000000pt" viewBox="0 0 260.000000 260.000000"
 preserveAspectRatio="xMidYMid meet">
<metadata>
Created by potrace 1.11, written by Peter Selinger 2001-2013
</metadata>
<g transform="translate(0.000000,260.000000) scale(0.100000,-0.100000)"
fill="#000000" stroke="none">
<path d="M486 2592 c-4 -7 -229 -604 -306 -812 -15 -41 -62 -166 -104 -277
-80 -213 -80 -217 -61 -333 3 -14 7 -50 10 -80 4 -30 8 -66 10 -80 3 -14 7
-49 11 -78 3 -29 7 -62 9 -72 2 -10 6 -46 10 -79 3 -33 7 -68 9 -78 2 -10 7
-47 11 -83 3 -36 8 -76 10 -90 4 -24 22 -168 31 -240 9 -76 15 -126 19 -150 2
-14 6 -47 10 -75 3 -27 8 -51 9 -52 2 -2 18 36 36 84 60 163 87 236 464 1243
207 553 386 1030 397 1060 12 30 25 64 30 75 4 11 17 44 28 73 l19 52 -323 0
c-178 0 -326 -4 -329 -8z"/>
<path d="M1435 2528 c-15 -40 -40 -107 -55 -148 -26 -70 -161 -431 -302 -805
-33 -88 -70 -187 -83 -220 -12 -33 -89 -238 -170 -455 -80 -217 -150 -404
-155 -415 -11 -24 -180 -477 -180 -482 0 -1 146 -3 324 -3 l324 0 10 28 c5 15
224 598 486 1296 262 697 476 1270 476 1272 0 2 -146 4 -324 4 l-324 0 -27
-72z"/>
<path d="M2095 1687 c-186 -496 -405 -1079 -485 -1295 l-148 -392 326 2 326 3
184 490 c101 270 192 515 204 545 11 30 24 64 29 75 5 11 22 57 39 103 30 82
32 110 15 202 -2 14 -7 52 -11 85 -3 33 -8 69 -10 80 -2 10 -6 49 -9 85 -4 36
-8 72 -10 80 -2 8 -7 42 -10 75 -4 33 -8 71 -10 85 -10 66 -24 178 -30 240 -3
25 -7 59 -10 75 -2 17 -7 53 -10 80 -6 51 -13 109 -20 155 -2 14 -6 47 -10 75
-3 27 -7 51 -9 52 -1 2 -155 -403 -341 -900z"/>
</g>
</svg>
